<?xml version="1.0" encoding="utf-8"?>
<!-- Generator: Adobe Illustrator 20.1.0, SVG Export Plug-In . SVG Version: 6.00 Build 0)  -->
<svg version="1.1" id="Layer_1" xmlns:sketch="http://www.bohemiancoding.com/sketch/ns"
	 xmlns="http://www.w3.org/2000/svg" xmlns:xlink="http://www.w3.org/1999/xlink" x="0px" y="0px" viewBox="0 0 46 46"
	 style="enable-background:new 0 0 46 46;" xml:space="preserve">
<style type="text/css">
	.st0{fill:#4285F4;}
	.st1{fill:#34A853;}
	.st2{fill:#FBBC05;}
	.st3{fill:#EA4335;}
	.st4{fill:none;}
</style>
<title>btn_google_light_focus_ios</title>
<desc>Created with Sketch.</desc>
<g id="Google-Button" sketch:type="MSPage">
	<g id="_x39_-PATCH" transform="translate(-668.000000, -160.000000)" sketch:type="MSArtboardGroup">
	</g>
	<g id="btn_google_light_focus" transform="translate(-1.000000, -1.000000)" sketch:type="MSArtboardGroup">
		<g id="logo_googleg_48dp" transform="translate(15.000000, 15.000000)" sketch:type="MSLayerGroup">
			<path id="Shape" sketch:type="MSShapeGroup" class="st0" d="M28.6,9.5c0-1.4-0.1-2.8-0.4-4.2H9v7.9h11c-0.5,2.6-1.9,4.7-4.1,6.2
				v5.1h6.6C26.4,20.9,28.6,15.7,28.6,9.5L28.6,9.5z"/>
			<path id="Shape_1_" sketch:type="MSShapeGroup" class="st1" d="M9,29.4c5.5,0,10.1-1.8,13.5-4.9l-6.6-5.1c-1.8,1.2-4.2,2-6.9,2
				c-5.3,0-9.8-3.6-11.4-8.4h-6.8v5.3C-5.9,24.9,1,29.4,9,29.4L9,29.4z"/>
			<path id="Shape_2_" sketch:type="MSShapeGroup" class="st2" d="M-2.4,12.9c-0.4-1.2-0.6-2.5-0.6-3.9s0.2-2.7,0.6-3.9v-5.3h-6.8
				c-1.4,2.8-2.2,5.9-2.2,9.2s0.8,6.4,2.2,9.2L-2.4,12.9L-2.4,12.9z"/>
			<path id="Shape_3_" sketch:type="MSShapeGroup" class="st3" d="M9-3.3c3,0,5.7,1,7.8,3.1l5.9-5.9c-3.5-3.3-8.2-5.3-13.7-5.3
				C1-11.4-5.9-6.9-9.3-0.2l6.8,5.3C-0.8,0.3,3.7-3.3,9-3.3L9-3.3z"/>
			<path id="Shape_4_" sketch:type="MSShapeGroup" class="st4" d="M-11.4-11.4h40.9v40.9h-40.9V-11.4z"/>
		</g>
		<g id="handles_square" sketch:type="MSLayerGroup">
		</g>
	</g>
</g>
</svg>
