<?xml version="1.0" encoding="utf-8"?>
<!-- Generator: Adobe Illustrator 20.1.0, SVG Export Plug-In . SVG Version: 6.00 Build 0)  -->
<svg version="1.1" id="Capa_1" xmlns="http://www.w3.org/2000/svg" xmlns:xlink="http://www.w3.org/1999/xlink" x="0px" y="0px"
	 viewBox="0 0 428.9 340.9" style="enable-background:new 0 0 428.9 340.9;" xml:space="preserve">
<style type="text/css">
	.st0{fill:#FFC217;}
	.st1{fill:#030104;}
</style>
<g>
	<g>
		<path class="st0" d="M203.6,221.9c6,6,15.8,6,21.8,0s6-15.7,0-21.8l-13-85.6l-9.4,86.3C197.5,206.9,197.8,216.1,203.6,221.9z"/>
		<rect x="137.6" y="274" class="st1" width="153.8" height="36.5"/>
		<path class="st0" d="M347.8,85.7c-35.6-35.6-83-55.2-133.3-55.2c-50.4,0-97.7,19.6-133.3,55.2S26,168.7,26,219
			c0,32.5,8.2,63.8,23.6,91.4h35.2l25.8-14.9l-11.4-19.7L66,295c-11.7-22.8-18.3-48.6-18.3-76c0-4.8,0.2-9.6,0.6-14.4l39.5,7l4-22.4
			l-40-7c7.1-31.5,23.3-59.7,45.5-81.7l27.1,32.3l17.4-14.6l-27.3-32.5c25-18.8,55.5-30.7,88.6-32.9V96h22.8V52.6
			c33.1,2.2,63.5,14.2,88.6,33l-27.3,32.5l17.4,14.6l27.1-32.3c22.2,22,38.3,50.2,45.5,81.7l-40,7.1l4,22.4l39.5-7
			c0.4,4.7,0.6,9.5,0.6,14.4c0,27.3-6.6,53.2-18.3,76l-33.1-19.1l-11.4,19.7l25.8,14.9h35.2c15.4-27.7,23.6-58.9,23.6-91.4
			C403,168.7,383.4,121.3,347.8,85.7z"/>
	</g>
</g>
</svg>
