<?xml version="1.0" encoding="utf-8"?>
<!-- Generator: Adobe Illustrator 20.1.0, SVG Export Plug-In . SVG Version: 6.00 Build 0)  -->
<svg version="1.1" id="Layer_1" xmlns="http://www.w3.org/2000/svg" xmlns:xlink="http://www.w3.org/1999/xlink" x="0px" y="0px"
	 viewBox="0 0 144 144" style="enable-background:new 0 0 144 144;" xml:space="preserve">
<style type="text/css">
	.st0{fill:#5CBA4B;}
	.st1{fill:#46A547;}
	.st2{fill:#006838;}
	.st3{fill:none;stroke:#006838;stroke-width:1.3019;stroke-miterlimit:10;}
	.st4{clip-path:url(#SVGID_2_);fill:#FFCD0A;}
	.st5{clip-path:url(#SVGID_2_);fill:#D8A728;}
	.st6{opacity:0.2;clip-path:url(#SVGID_2_);}
	.st7{clip-path:url(#SVGID_4_);fill:#FFFFFF;}
</style>
<g>
	<g>
		<path class="st0" d="M20.5,10.3h42c38,0,62.9,22.6,62.9,61.5c0,38.9-24.8,61.8-62.9,61.8h-42V10.3z"/>
		<path class="st1" d="M36.7,29.4h29c26.3,0,43.5,15.6,43.5,42.5c0,26.9-17.2,42.7-43.5,42.7h-29V29.4z"/>
		<path class="st2" d="M102.2,87.6H40c-0.6,0-1.1-0.5-1.1-1.1v-0.2c0-0.6,0.5-1.1,1.1-1.1h62.2c0.6,0,1.1,0.5,1.1,1.1v0.2
			C103.3,87.1,102.8,87.6,102.2,87.6"/>
		<path class="st3" d="M102.2,87.6H40c-0.6,0-1.1-0.5-1.1-1.1v-0.2c0-0.6,0.5-1.1,1.1-1.1h62.2c0.6,0,1.1,0.5,1.1,1.1v0.2
			C103.3,87.1,102.8,87.6,102.2,87.6z"/>
	</g>
	<g>
		<defs>
			<rect id="SVGID_1_" x="40.2" y="48.7" width="59" height="37.3"/>
		</defs>
		<clipPath id="SVGID_2_">
			<use xlink:href="#SVGID_1_"  style="overflow:visible;"/>
		</clipPath>
		<path class="st4" d="M99.2,80.3c0.1,15.8-12.6,28.7-28.4,28.8C54.9,109.2,42,96.5,41.9,80.7C41.8,64.9,54.5,52,70.3,51.9
			C86.2,51.8,99.1,64.5,99.2,80.3"/>
		<path class="st5" d="M70.7,103.6c-12.8,0.1-23.2-10.2-23.3-23c-0.1-12.8,10.2-23.2,23-23.3c12.8-0.1,23.2,10.2,23.3,23
			C93.8,93.1,83.5,103.5,70.7,103.6 M70.4,61C59.7,61.1,51,69.9,51.1,80.6c0.1,10.7,8.9,19.4,19.6,19.3c10.7-0.1,19.4-8.9,19.3-19.6
			C90,69.6,81.2,60.9,70.4,61"/>
		<g class="st6">
			<g>
				<defs>
					<rect id="SVGID_3_" x="51.1" y="61" width="39" height="39"/>
				</defs>
				<clipPath id="SVGID_4_">
					<use xlink:href="#SVGID_3_"  style="overflow:visible;"/>
				</clipPath>
				<path class="st7" d="M90,80.3c0.1,10.8-8.6,19.5-19.3,19.6c-10.8,0.1-19.5-8.6-19.6-19.3S59.6,61.1,70.4,61
					C81.2,60.9,90,69.6,90,80.3"/>
			</g>
		</g>
		<path class="st5" d="M77.3,75.3l-6,0l0-1c0-1.1-0.1-1.7-0.2-2.1c-0.1-0.3-0.4-0.5-0.9-0.5c-0.4,0-0.6,0.1-0.8,0.4
			c-0.2,0.3-0.3,0.7-0.3,1.3c0,0.9,0.2,1.6,0.6,2c0.4,0.4,1.4,1.1,3.2,2.2c1.5,0.9,2.6,1.6,3.1,2.1c0.6,0.5,1,1.2,1.4,2.1
			c0.4,0.9,0.6,2,0.6,3.3c0,2.1-0.5,3.8-1.5,5s-2.6,2-4.6,2.3l0,2.2l-2.8,0l0-2.3c-1.6-0.1-3-0.8-4.2-1.8c-1.2-1.1-1.8-2.9-1.8-5.6
			l0-1.2l6,0l0,1.5c0,1.6,0.1,2.6,0.2,3c0.1,0.4,0.4,0.6,0.9,0.6c0.4,0,0.7-0.1,0.9-0.4c0.2-0.3,0.3-0.7,0.3-1.2
			c0-1.3-0.1-2.3-0.3-2.9c-0.2-0.6-0.8-1.2-1.9-1.9c-1.8-1.1-3.1-2-3.7-2.5c-0.7-0.5-1.2-1.3-1.7-2.3c-0.5-1-0.7-2.1-0.7-3.3
			c0-1.8,0.5-3.2,1.5-4.2s2.5-1.7,4.5-1.9l0-1.9l2.8,0l0,1.9C73.6,68.4,75,69,76,70c0.9,1,1.4,2.4,1.4,4.1
			C77.4,74.4,77.3,74.8,77.3,75.3"/>
	</g>
</g>
</svg>
