<?xml version="1.0" encoding="utf-8"?>
<!-- Generator: Adobe Illustrator 20.1.0, SVG Export Plug-In . SVG Version: 6.00 Build 0)  -->
<svg version="1.1" id="Layer_1" xmlns="http://www.w3.org/2000/svg" xmlns:xlink="http://www.w3.org/1999/xlink" x="0px" y="0px"
	 viewBox="0 0 204.9 69.8" style="enable-background:new 0 0 204.9 69.8;" xml:space="preserve">
<style type="text/css">
	.st0{enable-background:new    ;}
	.st1{fill:#E6E7E8;}
	.st2{fill:#5CBA4B;}
	.st3{fill:#006838;stroke:#006838;stroke-width:0.4683;stroke-miterlimit:10;}
	.st4{clip-path:url(#SVGID_2_);}
	.st5{fill:#FFCD0A;}
	.st6{fill:#D8A728;}
	.st7{opacity:0.2;fill:#FFFFFF;enable-background:new    ;}
</style>
<g>
	<g class="st0">
		<path class="st1" d="M10,12.4h15.4c13.9,0,23,8.3,23,22.5c0,14.2-9.1,22.6-23,22.6H10V12.4z M25,50.4c9.1,0,15-5.4,15-15.6
			c0-10-6-15.4-15-15.4h-6.7v31H25z"/>
		<path class="st1" d="M57,12.4h8.2v19.1h20.6V12.4H94v45.1h-8.2V38.5H65.1v18.9H57V12.4z"/>
	</g>
	<g class="st0">
		<path class="st1" d="M158,12.4h8.2l17.1,26c1.7,2.6,3.7,7,3.7,7h0.1c0,0-0.4-4.3-0.4-7v-26h8.1v45.1h-8.1l-17.1-26
			c-1.7-2.6-3.7-7-3.7-7h-0.1c0,0,0.4,4.3,0.4,7v26H158V12.4z"/>
	</g>
	<g>
		<polygon class="st2" points="125.7,12.5 151,57.4 100.5,57.4 		"/>
		<g>
			<path class="st3" d="M137.1,46.7h-22.4c-0.2,0-0.4-0.2-0.4-0.4v-0.1c0-0.2,0.2-0.4,0.4-0.4h22.4c0.2,0,0.4,0.2,0.4,0.4v0.1
				C137.5,46.6,137.3,46.7,137.1,46.7z"/>
			<g>
				<g>
					<defs>
						<rect id="SVGID_1_" x="114.8" y="27.4" width="21.2" height="18.8"/>
					</defs>
					<clipPath id="SVGID_2_">
						<use xlink:href="#SVGID_1_"  style="overflow:visible;"/>
					</clipPath>
					<g class="st4">
						<g>
							
								<ellipse transform="matrix(1 -6.980413e-03 6.980413e-03 1 -0.3057 0.8785)" class="st5" cx="125.7" cy="44.2" rx="10.3" ry="10.3"/>
							<path class="st6" d="M125.8,52.5c-4.6,0-8.4-3.7-8.4-8.3s3.7-8.4,8.3-8.4c4.6,0,8.4,3.7,8.4,8.3S130.4,52.5,125.8,52.5z
								 M125.7,37.2c-3.9,0-7,3.2-7,7.1s3.2,7,7.1,7s7-3.2,7-7.1C132.7,40.3,129.5,37.1,125.7,37.2z"/>
							
								<ellipse transform="matrix(1 -6.972560e-03 6.972560e-03 1 -0.3053 0.8776)" class="st7" cx="125.7" cy="44.2" rx="7" ry="7"/>
							<g>
								<path class="st6" d="M128.1,42.3h-2.2v-0.4c0-0.4,0-0.6-0.1-0.7c-0.1-0.1-0.2-0.2-0.3-0.2c-0.1,0-0.2,0.1-0.3,0.2
									c-0.1,0.1-0.1,0.3-0.1,0.5c0,0.3,0.1,0.6,0.2,0.7c0.1,0.1,0.5,0.4,1.2,0.8c0.5,0.3,0.9,0.6,1.1,0.8s0.4,0.4,0.5,0.7
									s0.2,0.7,0.2,1.2c0,0.8-0.2,1.4-0.5,1.8c-0.4,0.4-0.9,0.7-1.7,0.8v0.8h-1v-0.8c-0.6-0.1-1.1-0.3-1.5-0.7s-0.7-1.1-0.7-2
									v-0.4h2.2v0.5c0,0.6,0,0.9,0.1,1.1c0,0.1,0.2,0.2,0.3,0.2c0.1,0,0.3-0.1,0.3-0.1c0.1-0.1,0.1-0.2,0.1-0.4c0-0.5,0-0.8-0.1-1
									s-0.3-0.4-0.7-0.7c-0.7-0.4-1.1-0.7-1.3-0.9c-0.2-0.2-0.4-0.5-0.6-0.8c-0.2-0.4-0.3-0.7-0.3-1.2c0-0.6,0.2-1.1,0.5-1.5
									c0.4-0.4,0.9-0.6,1.6-0.7v-0.7h1v0.7c0.7,0.1,1.2,0.3,1.5,0.7s0.5,0.9,0.5,1.5C128.2,42,128.1,42.1,128.1,42.3z"/>
							</g>
						</g>
					</g>
				</g>
			</g>
		</g>
	</g>
</g>
</svg>
