<?xml version="1.0" encoding="utf-8"?>
<!-- Generator: Adobe Illustrator 20.1.0, SVG Export Plug-In . SVG Version: 6.00 Build 0)  -->
<svg version="1.1" id="Layer_1" xmlns="http://www.w3.org/2000/svg" xmlns:xlink="http://www.w3.org/1999/xlink" x="0px" y="0px"
	 viewBox="0 0 144 144" style="enable-background:new 0 0 144 144;" xml:space="preserve">
<style type="text/css">
	.st0{fill:#B1B1B1;}
	.st1{fill:#989898;}
	.st2{fill:#262626;stroke:#262626;stroke-width:1.3845;stroke-miterlimit:10;}
	.st3{clip-path:url(#SVGID_2_);}
	.st4{fill:#C7C7C7;}
	.st5{fill:#A3A3A3;}
	.st6{opacity:0.2;fill:#FFFFFF;}
</style>
<g>
	<g>
		<path class="st0" d="M16.2,6.4h44.7c40.5,0,66.9,24,66.9,65.4s-26.4,65.8-66.9,65.8H16.2V6.4z"/>
	</g>
	<g>
		<path class="st1" d="M33.4,26.7h30.9c28,0,46.2,16.6,46.2,45.2s-18.3,45.5-46.2,45.5H33.4V26.7z"/>
	</g>
	<g>
		<g>
			<path class="st2" d="M103.1,88.6H36.9c-0.6,0-1.1-0.5-1.1-1.1v-0.2c0-0.6,0.5-1.1,1.1-1.1h66.2c0.6,0,1.1,0.5,1.1,1.1v0.2
				C104.2,88.1,103.7,88.6,103.1,88.6z"/>
			<g>
				<defs>
					<rect id="SVGID_1_" x="37.2" y="47.2" width="62.8" height="39.6"/>
				</defs>
				<clipPath id="SVGID_2_">
					<use xlink:href="#SVGID_1_"  style="overflow:visible;"/>
				</clipPath>
				<g class="st3">
					<g>
						
							<ellipse transform="matrix(1 -6.980583e-03 6.980583e-03 1 -0.5639 0.4863)" class="st4" cx="69.4" cy="81" rx="30.4" ry="30.4"/>
						<path class="st5" d="M69.6,105.6C56,105.7,44.9,94.8,44.8,81.2c-0.1-13.6,10.9-24.7,24.4-24.8C82.8,56.3,93.9,67.3,94,80.8
							C94.1,94.4,83.1,105.5,69.6,105.6z M69.2,60.3c-11.4,0.1-20.7,9.4-20.6,20.9c0.1,11.4,9.4,20.7,20.9,20.6
							c11.4-0.1,20.7-9.4,20.6-20.9C90,69.4,80.7,60.2,69.2,60.3z"/>
						
							<ellipse transform="matrix(1 -6.972729e-03 6.972729e-03 1 -0.5632 0.4858)" class="st6" cx="69.4" cy="81" rx="20.7" ry="20.7"/>
						<g>
							<path class="st5" d="M76.6,75.5l-6.4,0l0-1.1c0-1.1-0.1-1.9-0.2-2.2c-0.2-0.3-0.5-0.5-0.9-0.5c-0.4,0-0.7,0.2-0.9,0.5
								c-0.2,0.3-0.3,0.7-0.3,1.3c0,1,0.2,1.7,0.6,2.1c0.4,0.4,1.5,1.2,3.4,2.3c1.6,1,2.7,1.7,3.3,2.2c0.6,0.5,1.1,1.2,1.5,2.2
								c0.4,0.9,0.6,2.1,0.6,3.5c0,2.3-0.5,4.1-1.6,5.4c-1.1,1.3-2.7,2.1-4.9,2.4l0,2.4l-2.9,0l0-2.5c-1.7-0.2-3.2-0.8-4.5-1.9
								c-1.3-1.1-1.9-3.1-1.9-5.9l0-1.2l6.4,0l0,1.6c0,1.7,0.1,2.8,0.2,3.2c0.1,0.4,0.5,0.6,1,0.6c0.4,0,0.7-0.1,1-0.4
								c0.2-0.3,0.3-0.7,0.3-1.3c0-1.4-0.1-2.4-0.3-3.1c-0.2-0.6-0.9-1.3-2.1-2c-2-1.2-3.3-2.1-4-2.7c-0.7-0.6-1.3-1.4-1.8-2.4
								c-0.5-1-0.8-2.2-0.8-3.5c0-1.9,0.5-3.4,1.6-4.5c1.1-1.1,2.7-1.8,4.8-2l0-2l2.9,0l0,2c2,0.2,3.4,0.9,4.4,1.9
								c1,1.1,1.5,2.5,1.5,4.4C76.6,74.6,76.6,75,76.6,75.5z"/>
						</g>
					</g>
				</g>
			</g>
		</g>
	</g>
</g>
</svg>
